<?xml version="1.0" encoding="utf-8"?>
<!-- Generator: Adobe Illustrator 15.1.0, SVG Export Plug-In . SVG Version: 6.00 Build 0)  -->
<!DOCTYPE svg PUBLIC "-//W3C//DTD SVG 1.1//EN" "http://www.w3.org/Graphics/SVG/1.1/DTD/svg11.dtd">
<svg version="1.1" id="Layer_1" xmlns="http://www.w3.org/2000/svg" xmlns:xlink="http://www.w3.org/1999/xlink" x="0px" y="0px"
	 width="62px" height="90.81px" viewBox="0 0 62 90.81" enable-background="new 0 0 62 90.81" xml:space="preserve">
<g>
	<g>
		<path d="M11.527,44.085c-0.027,0-0.051,0-0.078-0.003c-0.776-0.032-1.451-0.54-1.696-1.275C6.687,33.61,6.044,8.013,6.022,6.962
			h3.687c0.003,0.211,0.539,18.449,2.349,29.25l6.264-14.667c0.299-0.703,0.968-1.178,1.762-1.134
			c0.762,0.017,1.438,0.499,1.706,1.214l5.016,13.417c1.032-6.339,2.31-18.033,2.062-28.027h3.738
			c0.416,16.754-3.215,34.709-3.368,35.401c-0.18,0.809-0.871,1.399-1.696,1.455c-0.832,0.073-1.589-0.436-1.878-1.209
			l-5.739-15.353l-6.678,15.64C12.951,43.64,12.271,44.085,11.527,44.085z"/>
	</g>
	<path d="M53.369,33.45c-0.307-6.072-4.835-8.729-9.009-9.826c2.67-1.924,5.464-4.037,6.622-5.243
		c2.078-2.166,3.105-5.264,2.555-7.712c-0.379-1.679-1.184-2.991-2.761-3.59C50.567,7,49.985,6.846,49.764,6.845L35.121,6.911
		l-0.024,38.51h3.736V27.496c0.125-0.084,0.273-0.186,0.438-0.298c2.526-0.238,10.121-0.451,10.365,6.442
		c0.279,7.997,0.309,11.237,0.309,11.789l3.779,0.075C53.729,44.849,53.783,41.636,53.369,33.45z M49.42,10.749
		c0.199,0.126,0.38,0.336,0.47,0.741c0.274,1.215-0.416,3.065-1.604,4.301c-1.356,1.412-6.061,4.797-9.409,7.133
		c-0.015,0-0.029,0-0.044,0v-12.26L49.42,10.749z"/>
	<g>
		<path d="M11.422,82.71H7.684V49.38c0-0.859,0.584-1.606,1.417-1.813c0.828-0.212,1.699,0.178,2.103,0.935l15.982,30.056h1.161
			V49.433h3.738v30.992c0,1.032-0.835,1.869-1.869,1.869h-4.152c-0.691,0-1.326-0.379-1.65-0.99L11.422,56.875V82.71z"/>
	</g>
	<path d="M52.54,49.38H35.252v3.738h15.419v10.381h-5.71v3.738h5.71v12.876h-15.16v3.738H52.54c1.034,0,1.869-0.837,1.869-1.869
		V51.249C54.409,50.217,53.574,49.38,52.54,49.38z"/>
	<g>
		<path d="M60.12,90.81H1.869C0.836,90.81,0,89.973,0,88.94V1.927c0-1.032,0.836-1.869,1.869-1.869H60.12
			c1.032,0,1.869,0.837,1.869,1.869V88.94C61.989,89.973,61.152,90.81,60.12,90.81z M3.738,87.071h54.513V3.796H3.738V87.071z"/>
	</g>
</g>
</svg>
