<?xml version="1.0" encoding="utf-8"?>
<!-- Generator: Adobe Illustrator 15.1.0, SVG Export Plug-In . SVG Version: 6.00 Build 0)  -->
<!DOCTYPE svg PUBLIC "-//W3C//DTD SVG 1.1//EN" "http://www.w3.org/Graphics/SVG/1.1/DTD/svg11.dtd">
<svg version="1.1" id="Layer_1" xmlns="http://www.w3.org/2000/svg" xmlns:xlink="http://www.w3.org/1999/xlink" x="0px" y="0px"
	 width="49.833px" height="72.25px" viewBox="0 0 49.833 72.25" enable-background="new 0 0 49.833 72.25" xml:space="preserve">
<g>
	<g>
		<path d="M9.375,35.417c-0.021,0-0.041,0-0.062-0.002c-0.623-0.025-1.164-0.434-1.361-1.023C5.49,27.011,4.975,6.468,4.957,5.625
			h2.959c0.003,0.17,0.433,14.807,1.885,23.475l5.027-11.771c0.24-0.564,0.777-0.945,1.414-0.91c0.611,0.014,1.154,0.4,1.369,0.975
			l4.025,10.768c0.828-5.088,1.854-14.473,1.654-22.493h3c0.334,13.446-2.581,27.856-2.704,28.411
			c-0.145,0.648-0.699,1.123-1.361,1.168c-0.668,0.059-1.275-0.35-1.508-0.971l-4.605-12.321l-5.359,12.552
			C10.518,35.06,9.973,35.417,9.375,35.417z"/>
	</g>
	<path d="M42.956,26.882c-0.246-4.873-3.881-7.006-7.23-7.886c2.143-1.544,4.385-3.24,5.314-4.208
		c1.668-1.738,2.492-4.225,2.051-6.189c-0.305-1.348-0.949-2.4-2.215-2.881c-0.168-0.063-0.635-0.187-0.812-0.188L28.311,5.583
		l-0.02,30.906h2.998V22.104c0.1-0.067,0.219-0.149,0.352-0.239c2.027-0.191,8.123-0.362,8.318,5.17
		c0.225,6.418,0.248,9.018,0.248,9.461l3.033,0.061C43.245,36.031,43.288,33.453,42.956,26.882z M39.786,8.664
		c0.16,0.102,0.305,0.27,0.377,0.595c0.221,0.976-0.334,2.46-1.287,3.452c-1.088,1.133-4.863,3.85-7.551,5.725
		c-0.012,0-0.023,0-0.035,0v-9.84L39.786,8.664z"/>
	<g>
		<path d="M9.291,66.417h-3v-26.75c0-0.689,0.469-1.289,1.137-1.455c0.664-0.17,1.363,0.143,1.688,0.75l12.826,24.121h0.932V39.71h3
			v24.873c0,0.828-0.67,1.5-1.5,1.5h-3.332c-0.555,0-1.064-0.305-1.324-0.795L9.291,45.683V66.417z"/>
	</g>
	<path d="M42.29,39.667H28.417v3H40.79V51h-4.582v3h4.582v8.99H28.624v3H42.29c0.83,0,1.5-0.672,1.5-1.5V41.167
		C43.79,40.339,43.12,39.667,42.29,39.667z"/>
	<g>
		<path d="M48.374,72.355H1.624c-0.829,0-1.5-0.672-1.5-1.5V1.583c0-0.828,0.671-1.5,1.5-1.5h46.75c0.828,0,1.5,0.672,1.5,1.5
			v69.271C49.874,71.683,49.202,72.355,48.374,72.355z M3.124,69.355h43.75V3.083H3.124V69.355z"/>
	</g>
</g>
</svg>
